<svg width="44" height="45" viewBox="0 0 44 45" fill="none" xmlns="http://www.w3.org/2000/svg">
<rect y="0.5" width="44" height="44" rx="5" fill="url(#paint0_linear_97_693)" fill-opacity="0.08"/>
<g clip-path="url(#clip0_97_693)">
<path d="M31.9804 18.3801C31.9336 17.3174 31.7617 16.5868 31.5156 15.9537C31.2616 15.2818 30.8709 14.6801 30.359 14.18C29.8589 13.6721 29.2533 13.2774 28.5891 13.0274C27.9524 12.7813 27.2256 12.6094 26.163 12.5626C25.0923 12.5118 24.7525 12.5 22.0371 12.5C19.3217 12.5 18.9818 12.5118 17.9152 12.5586C16.8525 12.6055 16.1219 12.7775 15.489 13.0235C14.8169 13.2774 14.2153 13.6681 13.7152 14.18C13.2073 14.6801 12.8127 15.2857 12.5626 15.9499C12.3164 16.5868 12.1446 17.3134 12.0977 18.3761C12.0469 19.4467 12.0352 19.7866 12.0352 22.502C12.0352 25.2173 12.0469 25.5572 12.0938 26.6239C12.1406 27.6865 12.3126 28.4171 12.5588 29.0502C12.8127 29.7221 13.2073 30.3238 13.7152 30.8239C14.2153 31.3318 14.8209 31.7265 15.4851 31.9765C16.1219 32.2226 16.8486 32.3945 17.9114 32.4413C18.9779 32.4883 19.3179 32.4999 22.0333 32.4999C24.7486 32.4999 25.0885 32.4883 26.1552 32.4413C27.2178 32.3945 27.9484 32.2226 28.5813 31.9765C29.9254 31.4568 30.9881 30.3941 31.5078 29.0502C31.7538 28.4133 31.9258 27.6865 31.9726 26.6239C32.0195 25.5572 32.0312 25.2173 32.0312 22.502C32.0312 19.7866 32.0273 19.4467 31.9804 18.3801ZM30.1794 26.5457C30.1364 27.5225 29.9723 28.0499 29.8355 28.4015C29.4995 29.2728 28.808 29.9643 27.9367 30.3004C27.585 30.4372 27.0538 30.6012 26.0808 30.6441C25.026 30.6911 24.7096 30.7027 22.0411 30.7027C19.3725 30.7027 19.0522 30.6911 18.0011 30.6441C17.0244 30.6012 16.4969 30.4372 16.1453 30.3004C15.7117 30.1402 15.317 29.8862 14.9967 29.5541C14.6646 29.2298 14.4106 28.8391 14.2504 28.4055C14.1137 28.0539 13.9496 27.5225 13.9067 26.5497C13.8597 25.4948 13.8481 25.1783 13.8481 22.5097C13.8481 19.8412 13.8597 19.5209 13.9067 18.4699C13.9496 17.4932 14.1137 16.9657 14.2504 16.6141C14.4106 16.1804 14.6646 15.7859 15.0007 15.4654C15.3248 15.1333 15.7155 14.8793 16.1493 14.7192C16.5009 14.5825 17.0323 14.4184 18.0051 14.3754C19.06 14.3285 19.3765 14.3168 22.0449 14.3168C24.7174 14.3168 25.0337 14.3285 26.0848 14.3754C27.0616 14.4184 27.589 14.5825 27.9406 14.7192C28.3742 14.8793 28.7689 15.1333 29.0892 15.4654C29.4213 15.7897 29.6753 16.1804 29.8355 16.6141C29.9723 16.9657 30.1364 17.497 30.1794 18.4699C30.2262 19.5248 30.238 19.8412 30.238 22.5097C30.238 25.1783 30.2262 25.4908 30.1794 26.5457Z" fill="url(#paint1_linear_97_693)"/>
<path d="M22.0371 17.3643C19.2007 17.3643 16.8994 19.6654 16.8994 22.502C16.8994 25.3385 19.2007 27.6397 22.0371 27.6397C24.8737 27.6397 27.1749 25.3385 27.1749 22.502C27.1749 19.6654 24.8737 17.3643 22.0371 17.3643ZM22.0371 25.8347C20.197 25.8347 18.7044 24.3422 18.7044 22.502C18.7044 20.6617 20.197 19.1693 22.0371 19.1693C23.8774 19.1693 25.3698 20.6617 25.3698 22.502C25.3698 24.3422 23.8774 25.8347 22.0371 25.8347Z" fill="url(#paint2_linear_97_693)"/>
<path d="M28.5775 17.1611C28.5775 17.8235 28.0404 18.3605 27.3779 18.3605C26.7155 18.3605 26.1785 17.8235 26.1785 17.1611C26.1785 16.4986 26.7155 15.9617 27.3779 15.9617C28.0404 15.9617 28.5775 16.4986 28.5775 17.1611Z" fill="url(#paint3_linear_97_693)"/>
</g>
<defs>
<linearGradient id="paint0_linear_97_693" x1="3.6924" y1="40.8075" x2="40.3079" y2="4.19236" gradientUnits="userSpaceOnUse">
<stop stop-color="#FFD600"/>
<stop offset="0.5" stop-color="#FF0100"/>
<stop offset="1" stop-color="#D800B9"/>
</linearGradient>
<linearGradient id="paint1_linear_97_693" x1="13.7132" y1="30.8216" x2="30.3565" y2="14.1815" gradientUnits="userSpaceOnUse">
<stop stop-color="#FFD600"/>
<stop offset="0.5" stop-color="#FF0100"/>
<stop offset="1" stop-color="#D800B9"/>
</linearGradient>
<linearGradient id="paint2_linear_97_693" x1="17.7617" y1="26.7774" x2="26.3126" y2="18.2265" gradientUnits="userSpaceOnUse">
<stop stop-color="#FFD600"/>
<stop offset="0.5" stop-color="#FF0100"/>
<stop offset="1" stop-color="#D800B9"/>
</linearGradient>
<linearGradient id="paint3_linear_97_693" x1="26.3798" y1="18.1592" x2="28.376" y2="16.1628" gradientUnits="userSpaceOnUse">
<stop stop-color="#FFD600"/>
<stop offset="0.5" stop-color="#FF0100"/>
<stop offset="1" stop-color="#D800B9"/>
</linearGradient>
<clipPath id="clip0_97_693">
<rect width="20" height="20" fill="white" transform="translate(12 12.5)"/>
</clipPath>
</defs>
</svg>
