<svg width="44" height="45" viewBox="0 0 44 45" fill="none" xmlns="http://www.w3.org/2000/svg">
<rect y="0.5" width="44" height="44" rx="5" fill="#0E76A8" fill-opacity="0.08"/>
<g clip-path="url(#clip0_97_695)">
<path d="M31.995 32.5V32.4992H32V25.1642C32 21.5759 31.2275 18.8117 27.0324 18.8117C25.0158 18.8117 23.6624 19.9184 23.1099 20.9675H23.0516V19.1467H19.0741V32.4992H23.2158V25.8875C23.2158 24.1467 23.5458 22.4634 25.7016 22.4634C27.8258 22.4634 27.8574 24.45 27.8574 25.9992V32.5H31.995Z" fill="#0E76A8"/>
<path d="M12.33 19.1475H16.4766V32.5H12.33V19.1475Z" fill="#0E76A8"/>
<path d="M14.4017 12.5C13.0758 12.5 12 13.5758 12 14.9017C12 16.2275 13.0758 17.3258 14.4017 17.3258C15.7275 17.3258 16.8033 16.2275 16.8033 14.9017C16.8025 13.5758 15.7267 12.5 14.4017 12.5V12.5Z" fill="#0E76A8"/>
</g>
<defs>
<clipPath id="clip0_97_695">
<rect width="20" height="20" fill="white" transform="translate(12 12.5)"/>
</clipPath>
</defs>
</svg>
